<?xml version="1.0" encoding="UTF-8"?>
<svg xmlns="http://www.w3.org/2000/svg" viewBox="0 0 800 600">
  <path d="M550,115 C530,125 520,135 500,130 C480,125 460,115 450,105 C440,95 430,85 410,90 C390,95 370,100 350,90 C330,80 320,70 300,75 C280,80 270,90 250,85 C230,80 210,70 190,75 C170,80 150,90 145,110 C140,130 150,150 145,170 C140,190 120,210 130,230 C140,250 160,270 170,290 C180,310 190,330 200,350 C210,370 220,390 240,400 C260,410 280,420 300,430 C320,440 340,450 360,460 C380,470 400,480 420,470 C440,460 460,450 480,440 C500,430 520,420 540,410 C560,400 570,380 580,360 C590,340 600,320 610,300 C620,280 630,260 620,240 C610,220 590,200 580,180 C570,160 560,140 550,120 L550,115 Z" fill="#003366"/>
</svg> 